<?xml version="1.0" encoding="UTF-8" standalone="no"?>
<svg 
    role="img" 
    xmlns="http://www.w3.org/2000/svg" 
    width="1000mm"
    height="1000mm"
    viewBox="0 0 1000 1000"
    style="max-width:1.6em; height: auto;">
    
    <path 
        id="path" 
        style="opacity:1;vector-effect:none;fill:#000000;fill-opacity:1;"
        d=" M 222 39C 222 39 222 39 222 39C 240 39 258 43 274 50C 439 147 603 246 768 344C 814 374 870 393 899 443C 938 501 914 582 857 617C 674 723 491 828 308 933C 253 973 169 967 121 917C 86 884 91 834 92 790C 92 579 93 366 94 157C 90 89 156 36 222 39M 220 90C 220 90 220 90 220 90C 345 214 470 339 595 463C 629 429 663 394 697 359C 572 285 447 211 322 137C 288 120 259 90 220 90M 166 106C 166 106 166 106 166 106C 152 116 145 132 144 148C 143 364 142 581 142 798C 142 832 135 876 172 895C 301 763 430 631 560 499C 428 368 297 237 166 106M 741 386C 741 386 741 386 741 386C 704 423 667 461 630 498C 671 539 711 579 752 620C 781 603 811 588 838 569C 876 541 878 481 842 450C 813 424 775 408 741 386M 595 534C 595 534 595 534 595 534C 481 651 366 768 252 884C 229 903 222 919 261 903C 410 817 558 731 707 646C 670 609 633 571 595 534"
        transform="">
    </path>    
</svg>